<svg width="80" height="80" viewBox="0 0 80 80" fill="none" xmlns="http://www.w3.org/2000/svg">
<path d="M72.9627 59.5172C72.6451 57.8208 71.0123 56.7033 69.3157 57.0213C67.6195 57.3392 66.5018 58.972 66.8196 60.6683C67.0556 61.9269 66.5023 62.8237 66.1516 63.2464C65.8018 63.6678 65.0243 64.375 63.7485 64.375H16.3123C15.0365 64.375 14.259 63.668 13.9091 63.2464C13.5585 62.8237 13.0052 61.9269 13.2412 60.6683C14.1276 55.9383 15.9062 52.8272 17.6262 49.8184C19.7152 46.1648 21.8752 42.3866 21.8752 36.5625V31.875C21.8752 22.0208 29.8851 13.895 39.7349 13.752H40.3257C50.1421 13.8945 58.1252 22.0203 58.1252 31.875V36.5625C58.1252 41.5192 59.7466 44.93 61.2665 47.738C61.8321 48.783 62.9071 49.3761 64.0174 49.3761C64.5198 49.3761 65.0295 49.2547 65.5021 48.9988C67.0201 48.1773 67.5845 46.2808 66.7629 44.7631C65.2509 41.9691 64.3752 39.7314 64.3752 36.5625V31.875C64.3752 25.4436 61.8841 19.3692 57.3605 14.7709C53.484 10.83 48.5063 8.37094 43.1252 7.69219V3.125C43.1252 1.39906 41.7262 0 40.0002 0C38.2743 0 36.8752 1.39906 36.8752 3.125V7.70141C24.9287 9.25141 15.6252 19.5595 15.6252 31.875V36.5625C15.6252 40.7261 14.1138 43.3697 12.2004 46.7166C10.3154 50.0141 8.17868 53.7514 7.09806 59.5172C6.58228 62.2697 7.31196 65.0837 9.10009 67.2381C10.8866 69.3906 13.5154 70.625 16.3123 70.625H30.6856C30.6856 75.7944 34.8912 80 40.0606 80C45.2299 80 49.4356 75.7944 49.4356 70.625H63.7485C66.5454 70.625 69.1743 69.3906 70.9607 67.2381C72.7488 65.0837 73.4785 62.2697 72.9627 59.5172ZM40.0607 73.75C38.3376 73.75 36.9357 72.3481 36.9357 70.625H43.1857C43.1857 72.3481 41.7838 73.75 40.0607 73.75Z" fill="#B6BED6"/>
<path d="M16.9317 7.04647C15.6458 5.89522 13.6702 6.0046 12.5191 7.29053C6.46125 14.0577 3.125 22.789 3.125 31.8758C3.125 33.6018 4.52406 35.0008 6.25 35.0008C7.97594 35.0008 9.375 33.6018 9.375 31.8758C9.375 24.3293 12.1453 17.0785 17.1758 11.4591C18.3269 10.1732 18.2177 8.19756 16.9317 7.04647Z" fill="#B6BED6"/>
<path d="M67.4813 7.29066C66.3302 6.00488 64.3544 5.8955 63.0686 7.0466C61.7828 8.19769 61.6735 10.1733 62.8246 11.4593C67.855 17.0788 70.6253 24.3294 70.6253 31.876C70.6253 33.6019 72.0244 35.001 73.7503 35.001C75.4763 35.001 76.8753 33.6019 76.8753 31.876C76.8753 22.7891 73.5391 14.0579 67.4813 7.29066Z" fill="#B6BED6"/>
</svg>
