<?xml version="1.0" encoding="utf-8"?>
<!-- Generator: Adobe Illustrator 23.0.6, SVG Export Plug-In . SVG Version: 6.00 Build 0)  -->
<svg version="1.1" id="Calque_1" xmlns="http://www.w3.org/2000/svg" xmlns:xlink="http://www.w3.org/1999/xlink" x="0px" y="0px"
	 viewBox="0 0 80 80" style="enable-background:new 0 0 80 80;" xml:space="preserve">
<style type="text/css">
	.st0{fill:#B6BED6;}
</style>
<path class="st0" d="M73,59.5c-0.3-1.7-2-2.8-3.6-2.5c-1.7,0.3-2.8,2-2.5,3.6c0.2,1.3-0.3,2.2-0.7,2.6c-0.3,0.4-1.1,1.1-2.4,1.1
	H16.3c-1.3,0-2.1-0.7-2.4-1.1c-0.4-0.4-0.9-1.3-0.7-2.6c0.9-4.7,2.7-7.8,4.4-10.8c2.1-3.7,4.2-7.4,4.2-13.3v-4.7
	c0-9.9,8-18,17.9-18.1h0.6c9.8,0.1,17.8,8.3,17.8,18.1v4.7c0,5,1.6,8.4,3.1,11.2c0.6,1,1.6,1.6,2.8,1.6c0.5,0,1-0.1,1.5-0.4
	c1.5-0.8,2.1-2.7,1.3-4.2c-1.5-2.8-2.4-5-2.4-8.2v-4.7c0-6.4-2.5-12.5-7-17.1c-3.9-3.9-8.9-6.4-14.2-7.1V3.1C43.1,1.4,41.7,0,40,0
	c-1.7,0-3.1,1.4-3.1,3.1v4.6C24.9,9.3,15.6,19.6,15.6,31.9v4.7c0,4.2-1.5,6.8-3.4,10.2c-1.9,3.3-4,7-5.1,12.8
	c-0.5,2.8,0.2,5.6,2,7.7c1.8,2.2,4.4,3.4,7.2,3.4h14.4c0,5.2,4.2,9.4,9.4,9.4c5.2,0,9.4-4.2,9.4-9.4h14.3c2.8,0,5.4-1.2,7.2-3.4
	C72.7,65.1,73.5,62.3,73,59.5z M40.1,73.7c-1.7,0-3.1-1.4-3.1-3.1h6.2C43.2,72.3,41.8,73.7,40.1,73.7z"/>
</svg>
