<svg width="46" height="50" viewBox="0 0 46 50" fill="none" xmlns="http://www.w3.org/2000/svg">
<path fill-rule="evenodd" clip-rule="evenodd" d="M31.8986 1.15607L45.7182 43.2772C45.8571 43.7003 45.8223 44.1613 45.6213 44.5587C45.4202 44.9561 45.0695 45.2574 44.6463 45.3962L30.8702 49.9159C30.6964 49.9729 30.5199 50 30.3464 50C29.6402 50 28.9832 49.5512 28.7512 48.8438L18.0551 16.2433V48.3204C18.0551 49.2477 17.3033 49.9996 16.376 49.9996H1.8773C0.949943 49.9996 0.19812 49.2477 0.19812 48.3204V3.99018C0.19812 3.06283 0.949943 2.31101 1.8773 2.31101H16.3759C17.2835 2.31101 18.021 3.03171 18.0521 3.93175L29.7796 0.0840845C30.6604 -0.204733 31.6096 0.274951 31.8986 1.15607ZM3.55647 46.6412H14.6967H14.6968V5.66936H3.55647V46.6412ZM18.6459 7.2714L31.4186 46.2015L42.0038 42.7286L29.2311 3.79853L18.6459 7.2714ZM6.21589 24.1403H12.037C12.6552 24.1403 13.1565 23.6391 13.1565 23.0208V8.91578C13.1565 8.2975 12.6552 7.79633 12.037 7.79633H6.21589C5.59772 7.79633 5.09644 8.2975 5.09644 8.91578V23.0208C5.09644 23.6391 5.59772 24.1403 6.21589 24.1403ZM7.33533 10.0352H10.9176V21.9014H7.33533V10.0352ZM9.12645 43.3948C11.3487 43.3948 13.1565 41.587 13.1565 39.3647C13.1565 37.1425 11.3487 35.3347 9.12645 35.3347C6.90423 35.3347 5.09644 37.1425 5.09644 39.3647C5.09644 41.587 6.90435 43.3948 9.12645 43.3948ZM9.12645 37.5736C10.114 37.5736 10.9176 38.3772 10.9176 39.3647C10.9176 40.3523 10.114 41.1559 9.12645 41.1559C8.13888 41.1559 7.33533 40.3523 7.33533 39.3647C7.33533 38.3772 8.13888 37.5736 9.12645 37.5736ZM30.8468 35.7319C30.3608 36.6924 30.2781 37.7847 30.6136 38.8076C30.9492 39.8304 31.663 40.6613 32.6236 41.1473C33.1959 41.4369 33.8153 41.5834 34.4387 41.5834C34.8613 41.5834 35.2859 41.5161 35.6991 41.3805C37.8104 40.6877 38.9647 38.4064 38.2721 36.295C37.9365 35.2722 37.2227 34.4413 36.2621 33.9554C35.3017 33.4695 34.2094 33.3865 33.1865 33.7222C32.1636 34.0576 31.3328 34.7713 30.8468 35.7319ZM34.4446 35.7591C34.7217 35.7591 34.997 35.8243 35.2514 35.9529C35.6782 36.1689 35.9954 36.5383 36.1446 36.9928C36.4524 37.9312 35.9394 38.9451 35.001 39.2531C34.5463 39.4022 34.0609 39.3654 33.6341 39.1494C33.2072 38.9335 32.89 38.5641 32.7409 38.1095C32.5917 37.6549 32.6285 37.1695 32.8445 36.7427C33.0605 36.3158 33.4299 35.9986 33.8844 35.8494C34.0681 35.7891 34.2568 35.7591 34.4446 35.7591ZM27.3671 6.64856C27.6492 6.55609 27.9564 6.57938 28.2215 6.71338C28.4864 6.84737 28.6872 7.08111 28.7798 7.36322L33.1768 20.7655C33.3695 21.353 33.0496 21.9854 32.4621 22.1781L26.9311 23.9928C26.8154 24.0307 26.6976 24.0488 26.5819 24.0488C26.1112 24.0488 25.6733 23.7496 25.5185 23.2781L21.1213 9.87593C21.0288 9.59383 21.0521 9.28643 21.1861 9.02157C21.3202 8.75671 21.5538 8.55588 21.836 8.4633L27.3671 6.64856ZM23.5976 10.2417L27.2968 21.5164L30.7005 20.3998L27.0014 9.1249L23.5976 10.2417Z" fill="#DD4B39"/>
</svg>
