<svg width="82" height="82" viewBox="0 0 82 82" fill="none" xmlns="http://www.w3.org/2000/svg">
<path d="M41 0C49.109 0 57.036 2.40461 63.7784 6.90975C70.5208 11.4149 75.7759 17.8182 78.8791 25.31C81.9822 32.8018 82.7942 41.0455 81.2122 48.9987C79.6302 56.9519 75.7253 64.2574 69.9914 69.9914C64.2574 75.7253 56.9519 79.6302 48.9987 81.2122C41.0455 82.7942 32.8018 81.9822 25.31 78.8791C17.8182 75.7759 11.4149 70.5208 6.90975 63.7784C2.40461 57.036 0 49.109 0 41C0 30.1261 4.31963 19.6976 12.0086 12.0086C19.6976 4.31963 30.1261 0 41 0Z" fill="white"/>
<path fill-rule="evenodd" clip-rule="evenodd" d="M48.0811 22.9786C48.124 18.8367 44.8011 15.4442 40.6592 15.4013C36.5173 15.3584 33.1248 18.6813 33.0819 22.8232L32.9641 34.1903L22.9781 34.0868C18.8362 34.0439 15.4437 37.3668 15.4008 41.5087C15.3579 45.6506 18.6808 49.0431 22.8227 49.086L32.8086 49.1895L32.7052 59.1751C32.6622 63.317 35.9851 66.7095 40.127 66.7524C44.269 66.7954 47.6614 63.4725 47.7044 59.3306L47.8078 49.345L59.1746 49.4627C63.3165 49.5057 66.709 46.1828 66.7519 42.0409C66.7949 37.8989 63.472 34.5065 59.3301 34.4635L47.9633 34.3458L48.0811 22.9786Z" fill="#96A6CD"/>
</svg>
