<svg width="29" height="29" viewBox="0 0 29 29" fill="none" xmlns="http://www.w3.org/2000/svg">
<path d="M27.6624 13.5668L10.1101 4.66014C9.61435 4.40861 9.05213 4.86277 9.19446 5.40051L11.2869 13.3072C11.3529 13.5567 11.5611 13.7427 11.8163 13.7804L14.2654 14.1421L11.8163 14.5038C11.5611 14.5415 11.3528 14.7276 11.2868 14.977L9.19443 22.8837C9.05205 23.422 9.61476 23.8754 10.1101 23.6241L27.6624 14.7175C28.1336 14.4782 28.1315 13.8047 27.6624 13.5668ZM10.8101 21.8218L12.4254 15.7181L18.7755 14.7803C19.092 14.7335 19.3264 14.4619 19.3264 14.142C19.3264 13.8222 19.092 13.5505 18.7755 13.5038L12.4254 12.566L10.8102 6.46229L25.9448 14.1421L10.8101 21.8218ZM8.93435 14.7872L2.87629 14.7872C2.52004 14.7871 2.23113 14.4984 2.23116 14.142C2.23113 13.7857 2.51998 13.4969 2.87629 13.4969L8.93435 13.4969C9.29066 13.497 9.57957 13.7858 9.57949 14.1421C9.57951 14.4984 9.29066 14.7872 8.93435 14.7872ZM4.81812 10.9002C4.81812 10.5439 5.10695 10.255 5.46326 10.2551L7.85372 10.255C8.21003 10.255 8.49889 10.5439 8.49886 10.9002C8.49886 11.2565 8.21003 11.5454 7.85372 11.5453L5.46326 11.5453C5.10703 11.5453 4.81812 11.2565 4.81812 10.9002ZM8.49889 17.3839C8.49892 17.7402 8.21006 18.0291 7.85375 18.0291L5.46329 18.029C5.28512 18.0291 5.12383 17.9568 5.0071 17.8401C4.60431 17.4373 4.88695 16.7388 5.46332 16.7388L7.85378 16.7388C8.21006 16.7388 8.49892 17.0276 8.49889 17.3839Z" fill="white"/>
</svg>
