<svg width="60" height="57" viewBox="0 0 60 57" fill="none" xmlns="http://www.w3.org/2000/svg">
<path fill-rule="evenodd" clip-rule="evenodd" d="M51.5201 -0.4263H50.3059L50.053 0.761383L48.2183 9.38019H37.931C37.9155 9.37995 37.9001 9.37995 37.8847 9.38019H1.35387H-0.538086L-0.106597 11.2223L5.59412 35.5596L5.86534 36.7175H7.05458H16.0827C16.0959 36.7176 16.1091 36.7176 16.1224 36.7175H34.611C34.6262 36.7177 34.6413 36.7177 34.6564 36.7175H43.6561C44.2585 37.34 44.4141 37.7951 44.4465 38.0581C44.4837 38.3609 44.3909 38.6798 44.1187 39.0444L44.1139 39.0508L44.1091 39.0573C43.6138 39.7358 42.7857 40.1597 41.9002 40.1597H7.7672C6.93878 40.1597 6.2672 40.8313 6.2672 41.6597C6.2672 42.4881 6.93878 43.1597 7.7672 43.1597H41.9002C43.7198 43.1597 45.4544 42.2978 46.5272 40.833C47.108 40.0528 47.5823 38.9781 47.424 37.6917C47.2956 36.6478 46.7735 35.6536 45.8921 34.7159L50.8485 11.4329C50.9087 11.2811 50.9449 11.1172 50.9522 10.9458L52.7344 2.5737H58.9311C59.7595 2.5737 60.4311 1.90213 60.4311 1.0737C60.4311 0.245273 59.7595 -0.4263 58.9311 -0.4263H51.5201ZM23.984 33.7175H17.442L16.3724 24.4057H23.8199L23.984 33.7175ZM23.7671 21.4057H16.0278L14.991 12.3802H23.6081L23.7671 21.4057ZM26.8204 24.4057L26.9845 33.7175H33.3203L34.5745 24.4057H26.8204ZM34.9785 21.4057H26.7675L26.6085 12.3802H36.1942L34.9785 21.4057ZM37.6016 24.4057L36.3474 33.7175H43.0374L45.0197 24.4057H37.6016ZM45.6583 21.4057H38.0056L39.2212 12.3802H47.5796L45.6583 21.4057ZM13.008 21.4057L11.9713 12.3802H3.24583L5.35994 21.4057H13.008ZM6.06265 24.4057L8.24383 33.7175H14.4222L13.3526 24.4057H6.06265ZM14.0379 47.7408C12.4327 47.7408 11.1199 49.0498 11.1199 50.6788C11.1199 52.3078 12.4327 53.6168 14.0379 53.6168C15.6432 53.6168 16.956 52.3078 16.956 50.6788C16.956 49.0498 15.6432 47.7408 14.0379 47.7408ZM8.11986 50.6788C8.11986 47.4057 10.7631 44.7408 14.0379 44.7408C17.3127 44.7408 19.956 47.4057 19.956 50.6788C19.956 53.9519 17.3127 56.6168 14.0379 56.6168C10.7631 56.6168 8.11986 53.9519 8.11986 50.6788ZM34.0653 50.6788C34.0653 49.0498 35.3781 47.7408 36.9833 47.7408C38.5886 47.7408 39.9014 49.0498 39.9014 50.6788C39.9014 52.3078 38.5886 53.6168 36.9833 53.6168C35.3781 53.6168 34.0653 52.3078 34.0653 50.6788ZM36.9833 44.7408C33.7085 44.7408 31.0653 47.4057 31.0653 50.6788C31.0653 53.9519 33.7085 56.6168 36.9833 56.6168C40.2582 56.6168 42.9014 53.9519 42.9014 50.6788C42.9014 47.4057 40.2582 44.7408 36.9833 44.7408Z" fill="#96A6CD"/>
</svg>
