<svg width="60" height="59" viewBox="0 0 60 59" fill="none" xmlns="http://www.w3.org/2000/svg">
<path fill-rule="evenodd" clip-rule="evenodd" d="M57.6562 40.7175C58.9507 40.7175 60 39.7023 60 38.4499V14.4131C60 9.41169 55.7944 5.34267 50.625 5.34267H47.5781V3.07505C47.5781 1.82265 46.5288 0.807434 45.2344 0.807434C43.9399 0.807434 42.8906 1.82265 42.8906 3.07505V5.34267H32.2266V3.07505C32.2266 1.82265 31.1773 0.807434 29.8828 0.807434C28.5884 0.807434 27.5391 1.82265 27.5391 3.07505V5.34267H16.9922V3.07505C16.9922 1.82265 15.9429 0.807434 14.6484 0.807434C13.354 0.807434 12.3047 1.82265 12.3047 3.07505V5.34267H9.375C4.20563 5.34267 0 9.41169 0 14.4131V49.788C0 54.7895 4.20563 58.8585 9.375 58.8585H50.625C55.7944 58.8585 60 54.7895 60 49.788C60 48.5356 58.9507 47.5204 57.6562 47.5204C56.3618 47.5204 55.3125 48.5356 55.3125 49.788C55.3125 52.2887 53.2097 54.3232 50.625 54.3232H9.375C6.79031 54.3232 4.6875 52.2887 4.6875 49.788V14.4131C4.6875 11.9124 6.79031 9.87791 9.375 9.87791H12.3047V12.1455C12.3047 13.3979 13.354 14.4131 14.6484 14.4131C15.9429 14.4131 16.9922 13.3979 16.9922 12.1455V9.87791H27.5391V12.1455C27.5391 13.3979 28.5884 14.4131 29.8828 14.4131C31.1773 14.4131 32.2266 13.3979 32.2266 12.1455V9.87791H42.8906V12.1455C42.8906 13.3979 43.9399 14.4131 45.2344 14.4131C46.5288 14.4131 47.5781 13.3979 47.5781 12.1455V9.87791H50.625C53.2097 9.87791 55.3125 11.9124 55.3125 14.4131V38.4499C55.3125 39.7023 56.3618 40.7175 57.6562 40.7175ZM14.6484 26.8851C15.9429 26.8851 16.9922 25.8698 16.9922 24.6174C16.9922 23.3651 15.9429 22.3498 14.6484 22.3498C13.354 22.3498 12.3047 23.3651 12.3047 24.6174C12.3047 25.8698 13.354 26.8851 14.6484 26.8851ZM37.3828 24.6174C37.3828 25.8698 36.3335 26.8851 35.0391 26.8851C33.7446 26.8851 32.6953 25.8698 32.6953 24.6174C32.6953 23.3651 33.7446 22.3498 35.0391 22.3498C36.3335 22.3498 37.3828 23.3651 37.3828 24.6174ZM45.2344 26.8851C46.5288 26.8851 47.5781 25.8698 47.5781 24.6174C47.5781 23.3651 46.5288 22.3498 45.2344 22.3498C43.94 22.3498 42.8906 23.3651 42.8906 24.6174C42.8906 25.8698 43.94 26.8851 45.2344 26.8851ZM16.9922 34.4816C16.9922 35.7339 15.9429 36.7492 14.6484 36.7492C13.354 36.7492 12.3047 35.7339 12.3047 34.4816C12.3047 33.2292 13.354 32.214 14.6484 32.214C15.9429 32.214 16.9922 33.2292 16.9922 34.4816ZM14.6484 46.6133C15.9429 46.6133 16.9922 45.5981 16.9922 44.3457C16.9922 43.0933 15.9429 42.0781 14.6484 42.0781C13.354 42.0781 12.3047 43.0933 12.3047 44.3457C12.3047 45.5981 13.354 46.6133 14.6484 46.6133ZM27.1875 24.6174C27.1875 25.8698 26.1382 26.8851 24.8438 26.8851C23.5493 26.8851 22.5 25.8698 22.5 24.6174C22.5 23.3651 23.5493 22.3498 24.8438 22.3498C26.1382 22.3498 27.1875 23.3651 27.1875 24.6174ZM24.8438 36.7492C26.1382 36.7492 27.1875 35.7339 27.1875 34.4816C27.1875 33.2292 26.1382 32.214 24.8438 32.214C23.5493 32.214 22.5 33.2292 22.5 34.4816C22.5 35.7339 23.5493 36.7492 24.8438 36.7492ZM27.1875 44.3457C27.1875 45.5981 26.1382 46.6133 24.8438 46.6133C23.5493 46.6133 22.5 45.5981 22.5 44.3457C22.5 43.0933 23.5493 42.0781 24.8438 42.0781C26.1382 42.0781 27.1875 43.0933 27.1875 44.3457ZM35.0391 36.7492C36.3335 36.7492 37.3828 35.7339 37.3828 34.4816C37.3828 33.2292 36.3335 32.214 35.0391 32.214C33.7446 32.214 32.6953 33.2292 32.6953 34.4816C32.6953 35.7339 33.7446 36.7492 35.0391 36.7492ZM47.5781 34.4816C47.5781 35.7339 46.5288 36.7492 45.2344 36.7492C43.94 36.7492 42.8906 35.7339 42.8906 34.4816C42.8906 33.2292 43.94 32.214 45.2344 32.214C46.5288 32.214 47.5781 33.2292 47.5781 34.4816Z" fill="#96A6CD"/>
</svg>
