<svg width="745" height="163" viewBox="0 0 745 163" fill="none" xmlns="http://www.w3.org/2000/svg">
<path d="M11.0791 92.1962C10.8838 91.8153 10.7422 91.3417 10.6543 90.7753C9.62891 91.9178 8.2959 92.4891 6.65527 92.4891C5.10254 92.4891 3.81348 92.0399 2.78809 91.1415C1.77246 90.243 1.26465 89.1102 1.26465 87.743C1.26465 86.0634 1.88477 84.7743 3.125 83.8759C4.375 82.9774 6.17676 82.5233 8.53027 82.5135H10.4785V81.6053C10.4785 80.8729 10.2881 80.287 9.90723 79.8475C9.53613 79.4081 8.94531 79.1884 8.13477 79.1884C7.42188 79.1884 6.86035 79.3593 6.4502 79.701C6.0498 80.0428 5.84961 80.5116 5.84961 81.1073H1.61621C1.61621 80.1893 1.89941 79.3397 2.46582 78.5585C3.03223 77.7772 3.83301 77.1669 4.86816 76.7274C5.90332 76.2782 7.06543 76.0536 8.35449 76.0536C10.3076 76.0536 11.8555 76.5468 12.998 77.5331C14.1504 78.5096 14.7266 79.8866 14.7266 81.6639V88.5341C14.7363 90.038 14.9463 91.1757 15.3564 91.9471V92.1962H11.0791ZM7.57812 89.2518C8.20312 89.2518 8.7793 89.1151 9.30664 88.8417C9.83398 88.5585 10.2246 88.1825 10.4785 87.7137V84.9891H8.89648C6.77734 84.9891 5.64941 85.7216 5.5127 87.1864L5.49805 87.4354C5.49805 87.9628 5.68359 88.3973 6.05469 88.7391C6.42578 89.0809 6.93359 89.2518 7.57812 89.2518ZM30.2979 87.8016H22.5928L21.1279 92.1962H16.4551L24.3945 70.868H28.4668L36.4502 92.1962H31.7773L30.2979 87.8016ZM23.7793 84.2421H29.1113L26.4307 76.2587L23.7793 84.2421Z" fill="white"/>
<g filter="url(#filter0_d)">
<rect x="157.269" y="20.1962" width="122" height="122" rx="15" fill="#96A6CD"/>
</g>
<path d="M205.286 92.1962C204.961 91.5614 204.725 90.772 204.578 89.828C202.869 91.7323 200.647 92.6844 197.913 92.6844C195.325 92.6844 193.177 91.9358 191.468 90.4384C189.775 88.941 188.929 87.0529 188.929 84.7743C188.929 81.9748 189.962 79.8264 192.029 78.329C194.113 76.8316 197.116 76.0747 201.038 76.0585H204.285V74.5448C204.285 73.3241 203.968 72.3475 203.333 71.6151C202.715 70.8827 201.73 70.5165 200.379 70.5165C199.191 70.5165 198.255 70.8013 197.571 71.371C196.904 71.9406 196.57 72.7219 196.57 73.7147H189.515C189.515 72.1848 189.987 70.7688 190.931 69.4667C191.875 68.1646 193.209 67.1473 194.935 66.4149C196.66 65.6662 198.597 65.2919 200.745 65.2919C204 65.2919 206.58 66.1138 208.484 67.7577C210.405 69.3853 211.365 71.6802 211.365 74.6425V86.0927C211.382 88.5992 211.731 90.4953 212.415 91.7811V92.1962H205.286ZM199.451 87.2889C200.493 87.2889 201.453 87.0611 202.332 86.6053C203.211 86.1333 203.862 85.5067 204.285 84.7255V80.1844H201.648C198.117 80.1844 196.237 81.4052 196.009 83.8466L195.984 84.2616C195.984 85.1405 196.294 85.8648 196.912 86.4344C197.531 87.0041 198.377 87.2889 199.451 87.2889ZM237.317 84.8719H224.476L222.034 92.1962H214.246L227.479 56.6493H234.266L247.571 92.1962H239.783L237.317 84.8719ZM226.453 78.9393H235.34L230.872 65.6337L226.453 78.9393Z" fill="white"/>
<path d="M667.7 99.1962C667.114 98.0536 666.689 96.6327 666.426 94.9335C663.35 98.3612 659.351 100.075 654.429 100.075C649.771 100.075 645.903 98.7274 642.827 96.0321C639.78 93.3368 638.257 89.9384 638.257 85.8368C638.257 80.7977 640.117 76.9305 643.838 74.2352C647.588 71.5399 652.993 70.1776 660.054 70.1483H665.898V67.4237C665.898 65.2264 665.327 63.4686 664.185 62.1503C663.071 60.8319 661.299 60.1727 658.867 60.1727C656.729 60.1727 655.044 60.6854 653.813 61.7108C652.612 62.7362 652.012 64.1425 652.012 65.9296H639.312C639.312 63.1757 640.161 60.6268 641.86 58.2831C643.56 55.9393 645.962 54.1083 649.067 52.7899C652.173 51.4423 655.659 50.7684 659.526 50.7684C665.386 50.7684 670.029 52.2479 673.457 55.2069C676.914 58.1366 678.643 62.2675 678.643 67.5995V88.2098C678.672 92.7216 679.302 96.1346 680.532 98.4491V99.1962H667.7ZM657.197 90.3632C659.072 90.3632 660.801 89.953 662.383 89.1327C663.965 88.2831 665.137 87.1552 665.898 85.7489V77.5751H661.152C654.795 77.5751 651.411 79.7723 651.001 84.1669L650.957 84.9139C650.957 86.496 651.514 87.7997 652.627 88.8251C653.74 89.8505 655.264 90.3632 657.197 90.3632ZM725.356 86.0126H702.241L697.847 99.1962H683.828L707.646 35.2118H719.863L743.813 99.1962H729.795L725.356 86.0126ZM705.801 75.3339H721.797L713.755 51.3837L705.801 75.3339Z" fill="white"/>
<path d="M424.493 99.1962C424.037 98.3075 423.707 97.2024 423.502 95.8807C421.109 98.5468 417.999 99.8798 414.171 99.8798C410.548 99.8798 407.54 98.8316 405.147 96.7352C402.778 94.6389 401.593 91.9956 401.593 88.8055C401.593 84.8863 403.04 81.8785 405.934 79.7821C408.85 77.6858 413.054 76.6262 418.546 76.6034H423.092V74.4843C423.092 72.7753 422.647 71.4081 421.759 70.3827C420.893 69.3573 419.514 68.8446 417.623 68.8446C415.96 68.8446 414.649 69.2434 413.692 70.0409C412.758 70.8384 412.291 71.9322 412.291 73.3221H402.413C402.413 71.1802 403.074 69.1978 404.396 67.3749C405.717 65.552 407.586 64.1278 410.001 63.1024C412.416 62.0542 415.128 61.5302 418.136 61.5302C422.693 61.5302 426.305 62.6809 428.971 64.9823C431.66 67.2609 433.004 70.4738 433.004 74.621V90.6512C433.027 94.1604 433.517 96.815 434.474 98.6151V99.1962H424.493ZM416.324 92.326C417.783 92.326 419.127 92.007 420.357 91.369C421.588 90.7082 422.499 89.8309 423.092 88.7372V82.3798H419.4C414.456 82.3798 411.824 84.0887 411.505 87.5067L411.471 88.0878C411.471 89.3182 411.904 90.3322 412.77 91.1298C413.635 91.9273 414.82 92.326 416.324 92.326ZM469.337 88.9423H451.358L447.94 99.1962H437.037L455.562 49.4305H465.064L483.692 99.1962H472.789L469.337 88.9423ZM454.127 80.6366H466.568L460.313 62.0087L454.127 80.6366Z" fill="white"/>
<defs>
<filter id="filter0_d" x="137.269" y="0.196167" width="162" height="162" filterUnits="userSpaceOnUse" color-interpolation-filters="sRGB">
<feFlood flood-opacity="0" result="BackgroundImageFix"/>
<feColorMatrix in="SourceAlpha" type="matrix" values="0 0 0 0 0 0 0 0 0 0 0 0 0 0 0 0 0 0 127 0"/>
<feOffset/>
<feGaussianBlur stdDeviation="10"/>
<feColorMatrix type="matrix" values="0 0 0 0 0 0 0 0 0 0 0 0 0 0 0 0 0 0 0.25 0"/>
<feBlend mode="normal" in2="BackgroundImageFix" result="effect1_dropShadow"/>
<feBlend mode="normal" in="SourceGraphic" in2="effect1_dropShadow" result="shape"/>
</filter>
</defs>
</svg>
