<svg width="60" height="45" viewBox="0 0 60 45" fill="none" xmlns="http://www.w3.org/2000/svg">
<path fill-rule="evenodd" clip-rule="evenodd" d="M7.33706 0.797363H52.6754C56.7225 0.797363 60.0124 3.99239 60 7.9081V37.8765C60 41.7922 56.7101 44.9752 52.6629 44.9752H7.33706C3.28988 44.9752 0 41.7922 0 37.8765V7.89609C0 3.98038 3.28988 0.797363 7.33706 0.797363ZM52.6754 41.7322C54.8727 41.7322 56.6605 40.0025 56.6605 37.8765H56.648V7.9081C56.648 5.78209 54.8603 4.05245 52.6629 4.05245H7.33706C5.13966 4.05245 3.35196 5.78209 3.35196 7.9081V37.8765C3.35196 40.0025 5.13966 41.7322 7.33706 41.7322H52.6754ZM52.5135 9.78187L37.8394 22.5139L52.5756 36.0508C53.246 36.6633 53.2708 37.6963 52.6377 38.3449C52.3025 38.6813 51.868 38.8494 51.421 38.8494C51.0113 38.8494 50.5892 38.7053 50.2665 38.405L35.3441 24.688L31.1603 28.3154C30.85 28.5917 30.4403 28.7358 30.043 28.7358C29.6457 28.7358 29.2485 28.6037 28.9257 28.3274L24.8537 24.8081L9.84437 38.393C9.52159 38.6813 9.11191 38.8254 8.70223 38.8254C8.2553 38.8254 7.80837 38.6452 7.47318 38.3089C6.84003 37.6483 6.87727 36.6273 7.54766 36.0147L22.3335 22.622L7.48559 9.78187C6.79037 9.1813 6.7283 8.16034 7.34903 7.4877C7.96976 6.81506 9.02501 6.755 9.72023 7.35557L25.7848 21.2648C25.8841 21.3368 25.971 21.4089 26.0579 21.493C26.0579 21.505 26.0703 21.517 26.0827 21.529L26.0827 21.529L30.0306 24.9402L50.2665 7.36759C50.9617 6.76702 52.0169 6.82707 52.6377 7.4877C53.2584 8.16034 53.1963 9.1813 52.5135 9.78187Z" fill="#96A6CD"/>
</svg>
