<svg width="100" height="100" viewBox="0 0 100 100" fill="none" xmlns="http://www.w3.org/2000/svg">
<rect x="25" y="10" width="49" height="80" fill="white"/>
<g clip-path="url(#clip0)">
<path d="M50 -5.88496e-05C22.3857 -6.00566e-05 -9.78509e-07 22.3856 -2.18557e-06 49.9999C-3.39263e-06 77.6143 22.3857 99.9999 50 99.9999C77.6143 99.9999 100 77.6143 100 49.9999C100 22.3856 77.6143 -5.76425e-05 50 -5.88496e-05ZM69.0752 25.4629L62.1596 25.4659C56.7366 25.4659 55.688 28.0429 55.688 31.824L55.688 40.1616L68.6199 40.1616L68.6138 53.2204L55.689 53.2204L55.689 86.7324L42.2005 86.7324L42.2005 53.2204L30.9248 53.2204L30.9248 40.1616L42.2005 40.1616L42.2005 30.5309C42.2005 19.3544 49.0292 13.2675 58.9985 13.2675L69.0762 13.2828L69.0762 25.4629L69.0752 25.4629Z" fill="#3B5998"/>
</g>
<defs>
<clipPath id="clip0">
<rect width="100" height="100" fill="white"/>
</clipPath>
</defs>
</svg>
