<svg width="100" height="100" viewBox="0 0 100 100" fill="none" xmlns="http://www.w3.org/2000/svg">
<rect x="12" y="24" width="76" height="53" fill="white"/>
<g clip-path="url(#clip0)">
<path d="M0 -6.10352e-05L-4.37114e-06 99.9999L100 99.9999L100 -5.6664e-05L0 -6.10352e-05ZM58.2955 54.2068C56.5855 65.4402 48.2103 71.8802 37.3673 71.8802C25.1822 71.8802 15.3034 62.0013 15.3034 49.8163C15.3034 37.6343 25.1822 27.7554 37.3673 27.7554C43.2616 27.7554 48.4263 29.8588 52.1855 33.5101L45.8535 39.8422C43.709 37.6817 40.7744 36.5301 37.3673 36.5301C30.1946 36.5301 24.3796 42.6465 24.3796 49.8161C24.3796 56.992 30.1946 62.9308 37.3673 62.9308C43.379 62.9308 47.9314 60.025 49.2447 54.2068L37.3673 54.2068L37.3673 45.3463L58.2417 45.3463C58.4923 46.7739 58.6191 48.268 58.6191 49.8161C58.6189 51.3516 58.5079 52.8141 58.2955 54.2068ZM84.7912 51.4596L77.0601 51.4596L77.0601 59.1874L71.5687 59.1874L71.5687 51.4596L63.8376 51.4596L63.8376 45.9649L71.5687 45.9649L71.5687 38.2338L77.0601 38.2338L77.0601 45.9649L84.7912 45.9649L84.7912 51.4596Z" fill="#DD4B39"/>
</g>
<defs>
<clipPath id="clip0">
<rect y="-6.10352e-05" width="100" height="100" rx="50" fill="white"/>
</clipPath>
</defs>
</svg>
