<svg width="55" height="54" viewBox="0 0 55 54" fill="none" xmlns="http://www.w3.org/2000/svg">
<path fill-rule="evenodd" clip-rule="evenodd" d="M47.4728 19.3316H48.5547C52.1086 19.3316 55 22.129 55 25.5675V27.6462C55 31.0847 52.1086 33.8821 48.5547 33.8821H47.4726C47.1881 33.8821 46.93 34.0556 46.8154 34.324L46.7992 34.3621C46.6835 34.6317 46.7387 34.9317 46.9401 35.1265L47.7052 35.8667C48.9225 37.0445 49.5929 38.6104 49.5929 40.2761C49.5929 41.9418 48.9225 43.5078 47.7052 44.6856L46.186 46.1554C44.9686 47.3333 43.3501 47.9819 41.6284 47.9819C39.9068 47.9819 38.2882 47.3333 37.0709 46.1554L36.3058 45.4152C36.1046 45.2205 35.7944 45.1671 35.5158 45.2789L35.4738 45.2958C35.1987 45.4056 35.0195 45.6552 35.0195 45.9305V46.9775C35.0195 50.416 32.1282 53.2135 28.5742 53.2135H26.4258C22.8718 53.2135 19.9805 50.416 19.9805 46.9775V45.9305C19.9805 45.6552 19.8013 45.4056 19.5238 45.2947L19.4833 45.2785C19.2058 45.167 18.8953 45.2204 18.6941 45.4153L17.9291 46.1554C16.7118 47.3333 15.0933 47.9819 13.3716 47.9819C11.65 47.9819 10.0314 47.3333 8.81396 46.1554L7.2948 44.6856C6.0775 43.5077 5.40708 41.9418 5.40708 40.2761C5.40708 38.6104 6.0775 37.0445 7.29491 35.8666L8.05986 35.1264C8.26117 34.9316 8.31649 34.6316 8.2008 34.362L8.18168 34.3171C8.06985 34.0554 7.81193 33.8819 7.52727 33.8819H6.44531C2.89137 33.8819 0 31.0845 0 27.646V25.5673C0 22.1288 2.89137 19.3313 6.44531 19.3313H7.52737C7.81193 19.3313 8.07007 19.1579 8.18458 18.8894L8.19758 18.8591C8.31649 18.5818 8.26128 18.2817 8.05997 18.0869L7.29502 17.3468C4.78189 14.9153 4.78188 10.9592 7.29491 8.52767L8.81407 7.05806C10.0315 5.88019 11.65 5.23155 13.3717 5.23155C15.0933 5.23155 16.7119 5.88019 17.9292 7.05806L18.6943 7.79827C18.8955 7.99304 19.206 8.04656 19.4843 7.93452L19.5263 7.91768C19.8014 7.80783 19.9806 7.55829 19.9806 7.28297V6.23595C19.9806 2.79745 22.8719 0 26.4259 0H28.5743C32.1283 0 35.0196 2.79745 35.0196 6.23595V7.28297C35.0196 7.55829 35.1988 7.80783 35.4763 7.91872L35.5168 7.93494C35.7942 8.04646 36.1046 7.99304 36.306 7.79816L37.071 7.05806C38.2883 5.88019 39.9068 5.23155 41.6286 5.23155C43.3501 5.23155 44.9687 5.88019 46.1861 7.05806L47.7053 8.52787C50.2183 10.9593 50.2183 14.9155 47.7053 17.3469L46.9401 18.0871C46.7389 18.2818 46.6836 18.5819 46.7993 18.8515L46.8184 18.8964C46.9301 19.1581 47.1882 19.3316 47.4728 19.3316ZM48.5547 29.7247C49.7393 29.7247 50.7031 28.7922 50.7031 27.6461V25.5674C50.7031 24.4212 49.7393 23.4888 48.5547 23.4888H47.4726C45.4419 23.4888 43.6251 22.3064 42.8439 20.4765L42.8278 20.4385C42.0456 18.6165 42.4658 16.5367 43.9016 15.1473L44.6668 14.407C45.5044 13.5966 45.5044 12.2779 44.6667 11.4674L43.1475 9.99758C42.7418 9.60503 42.2022 9.38875 41.6283 9.38875C41.0544 9.38875 40.515 9.60493 40.1092 9.99748L39.3441 10.7378C37.908 12.127 35.7582 12.5334 33.8674 11.7737L33.8384 11.762C31.9448 11.0056 30.7227 9.24781 30.7227 7.28297V6.23595C30.7227 5.08978 29.7589 4.1573 28.5742 4.1573H26.4258C25.2411 4.1573 24.2773 5.08978 24.2773 6.23595V7.28297C24.2773 9.24781 23.0552 11.0056 21.1638 11.7612L21.1335 11.7734C19.2419 12.5337 17.0921 12.1272 15.656 10.738L14.8908 9.99769C14.4851 9.60503 13.9456 9.38885 13.3717 9.38885C12.7978 9.38885 12.2583 9.60513 11.8524 9.99769L10.3333 11.4675C9.49556 12.278 9.49556 13.5967 10.3333 14.4072L11.0983 15.1473C12.5342 16.5367 12.9544 18.6166 12.169 20.4462L12.159 20.4698C11.375 22.3064 9.55818 23.4888 7.52737 23.4888H6.44531C5.26066 23.4888 4.29688 24.4212 4.29688 25.5674V27.6461C4.29688 28.7922 5.26066 29.7247 6.44531 29.7247H7.52737C9.55808 29.7247 11.3749 30.907 12.1561 32.737L12.17 32.7696C12.9541 34.5987 12.5337 36.6775 11.0984 38.0661L10.3333 38.8063C9.9275 39.1989 9.70406 39.7209 9.70406 40.2761C9.70406 40.8314 9.9275 41.3533 10.3333 41.746L11.8525 43.2158C12.2582 43.6083 12.7978 43.8246 13.3717 43.8246C13.9456 43.8246 14.485 43.6084 14.8908 43.2159L15.6559 42.4756C16.6114 41.5512 17.8833 41.0618 19.1843 41.0618C19.8385 41.0618 20.4999 41.1853 21.1326 41.4397L21.1616 41.4513C23.0552 42.2078 24.2773 43.9656 24.2773 45.9305V46.9775C24.2773 48.1237 25.2411 49.0562 26.4258 49.0562H28.5742C29.7589 49.0562 30.7227 48.1237 30.7227 46.9775V45.9305C30.7227 43.9656 31.9448 42.2078 33.8362 41.4522L33.8665 41.4401C35.7582 40.6799 37.908 41.0864 39.344 42.4755L40.1092 43.2158C40.5149 43.6084 41.0544 43.8246 41.6283 43.8246C42.2022 43.8246 42.7417 43.6083 43.1476 43.2158L44.6667 41.746C45.0725 41.3533 45.2959 40.8314 45.2959 40.2761C45.2959 39.7209 45.0725 39.1989 44.6668 38.8063L43.9016 38.0661C42.4664 36.6775 42.046 34.5987 42.83 32.7696L42.8439 32.737C43.625 30.907 45.4418 29.7247 47.4726 29.7247H48.5547ZM15.0391 26.6067C15.0391 19.959 20.629 14.5505 27.5 14.5505C34.371 14.5505 39.9609 19.959 39.9609 26.6067C39.9609 27.7587 39.7928 28.8993 39.4612 29.9964C39.128 31.0983 37.9351 31.7303 36.796 31.408C35.6571 31.0857 35.0038 29.9313 35.337 28.8294C35.5541 28.1115 35.6641 27.3637 35.6641 26.6067C35.6641 22.2512 32.0016 18.7078 27.5 18.7078C22.9984 18.7078 19.3359 22.2512 19.3359 26.6067C19.3359 30.9622 22.9984 34.5056 27.5 34.5056C28.3429 34.5056 29.1729 34.3823 29.9669 34.1391C31.098 33.7927 32.3056 34.3992 32.6636 35.4937C33.0216 36.5882 32.3949 37.7563 31.2636 38.1027C30.0497 38.4745 28.7834 38.6629 27.5 38.6629C20.629 38.6629 15.0391 33.2544 15.0391 26.6067Z" fill="#96A6CD"/>
</svg>
