<svg width="177" height="177" viewBox="0 0 177 177" fill="none" xmlns="http://www.w3.org/2000/svg">
<circle cx="88.5" cy="88.5" r="88.5" fill="white"/>
<path d="M88 60.3531C80.2743 60.3531 73.9895 54.0684 73.9895 46.3426C73.9895 38.6168 80.2743 32.332 88 32.332C95.7258 32.332 102.011 38.6168 102.011 46.3426C102.011 54.0684 95.7258 60.3531 88 60.3531ZM88 37.2727C82.9989 37.2727 78.9301 41.3414 78.9301 46.3426C78.9301 51.3438 82.9989 55.4125 88 55.4125C93.0012 55.4125 97.07 51.3438 97.07 46.3426C97.07 41.3414 93.0012 37.2727 88 37.2727Z" fill="#96A6CD"/>
<path d="M115.198 91.668H60.8023C59.434 91.668 58.332 90.5661 58.332 89.1977C58.332 81.1207 61.4805 73.5524 67.184 67.8852C70.8652 64.2282 76.0602 62.1332 81.4246 62.1332H94.5754C99.952 62.1332 105.135 64.2282 108.816 67.8852C114.52 73.5524 117.668 81.1207 117.668 89.1977C117.668 90.5661 116.566 91.668 115.198 91.668ZM63.3937 86.7274H112.606C112.049 80.9149 109.506 75.5383 105.329 71.3969C102.568 68.6602 98.6441 67.086 94.5754 67.086H81.4246C77.3438 67.086 73.4324 68.6602 70.6715 71.3969C66.4938 75.5383 63.9508 80.9149 63.3937 86.7274Z" fill="#96A6CD"/>
<path d="M60.5874 112H59.6865V101.336H60.5874V112ZM64.0811 104.075L64.1104 105.364C64.4033 104.886 64.7695 104.527 65.209 104.288C65.6484 104.048 66.1367 103.929 66.6738 103.929C67.9238 103.929 68.7173 104.441 69.0542 105.467C69.3374 104.974 69.7158 104.595 70.1895 104.332C70.6631 104.063 71.1855 103.929 71.7568 103.929C73.4561 103.929 74.3228 104.856 74.3569 106.712V112H73.478V106.778C73.4731 106.07 73.3193 105.545 73.0166 105.203C72.7188 104.861 72.2305 104.69 71.5518 104.69C70.9219 104.7 70.3896 104.905 69.9551 105.306C69.5205 105.701 69.2788 106.185 69.23 106.756V112H68.3511V106.712C68.3462 106.033 68.1851 105.528 67.8677 105.196C67.5552 104.859 67.0718 104.69 66.4175 104.69C65.8657 104.69 65.3921 104.849 64.9966 105.167C64.6011 105.479 64.3081 105.945 64.1177 106.565V112H63.2388V104.075H64.0811ZM82.9556 108.118C82.9556 109.354 82.6821 110.335 82.1353 111.062C81.5884 111.785 80.856 112.146 79.938 112.146C78.854 112.146 78.0239 111.766 77.4478 111.004V115.047H76.5762V104.075H77.3892L77.4331 105.196C78.0044 104.351 78.832 103.929 79.916 103.929C80.8633 103.929 81.6055 104.288 82.1426 105.005C82.6846 105.723 82.9556 106.719 82.9556 107.994V108.118ZM82.0767 107.964C82.0767 106.954 81.8691 106.155 81.4541 105.569C81.0391 104.983 80.4604 104.69 79.7183 104.69C79.1812 104.69 78.7197 104.82 78.334 105.079C77.9482 105.337 77.6528 105.713 77.4478 106.207V110.008C77.6577 110.462 77.958 110.809 78.3486 111.048C78.7393 111.287 79.2007 111.407 79.7329 111.407C80.4702 111.407 81.0439 111.114 81.4541 110.528C81.8691 109.937 82.0767 109.083 82.0767 107.964ZM84.4204 107.92C84.4204 107.159 84.5669 106.473 84.8599 105.862C85.1577 105.252 85.5752 104.778 86.1123 104.441C86.6543 104.1 87.2671 103.929 87.9507 103.929C89.0054 103.929 89.8599 104.3 90.5142 105.042C91.1685 105.779 91.4956 106.758 91.4956 107.979V108.162C91.4956 108.929 91.3467 109.62 91.0488 110.235C90.7559 110.845 90.3408 111.316 89.8037 111.648C89.2666 111.98 88.6538 112.146 87.9653 112.146C86.9155 112.146 86.061 111.778 85.4019 111.041C84.7476 110.298 84.4204 109.317 84.4204 108.096V107.92ZM85.2993 108.162C85.2993 109.109 85.5435 109.888 86.0317 110.499C86.5249 111.104 87.1694 111.407 87.9653 111.407C88.7563 111.407 89.396 111.104 89.8843 110.499C90.3774 109.888 90.624 109.085 90.624 108.089V107.92C90.624 107.315 90.5117 106.761 90.2871 106.258C90.0625 105.755 89.7476 105.367 89.3423 105.093C88.937 104.815 88.4731 104.676 87.9507 104.676C87.1694 104.676 86.5322 104.983 86.0391 105.599C85.5459 106.209 85.2993 107.01 85.2993 108.001V108.162ZM96.9741 104.822C96.7886 104.788 96.5908 104.771 96.3809 104.771C95.834 104.771 95.3701 104.925 94.9893 105.232C94.6133 105.535 94.3447 105.977 94.1836 106.558V112H93.312V104.075H94.1689L94.1836 105.335C94.6475 104.397 95.3921 103.929 96.4175 103.929C96.6616 103.929 96.8545 103.96 96.9961 104.024L96.9741 104.822ZM100.094 102.046V104.075H101.735V104.793H100.094V110.074C100.094 110.513 100.172 110.84 100.329 111.055C100.49 111.27 100.756 111.377 101.127 111.377C101.273 111.377 101.51 111.353 101.837 111.304L101.874 112.022C101.645 112.105 101.332 112.146 100.937 112.146C100.336 112.146 99.8989 111.973 99.6255 111.626C99.3521 111.275 99.2153 110.76 99.2153 110.081V104.793H97.7578V104.075H99.2153V102.046H100.094ZM106.62 112.146C105.946 112.146 105.336 111.98 104.789 111.648C104.247 111.316 103.825 110.855 103.522 110.264C103.219 109.668 103.068 109.002 103.068 108.265V107.95C103.068 107.188 103.214 106.502 103.507 105.892C103.805 105.281 104.218 104.803 104.745 104.456C105.272 104.104 105.844 103.929 106.459 103.929C107.421 103.929 108.183 104.258 108.744 104.917C109.311 105.572 109.594 106.468 109.594 107.605V108.096H103.939V108.265C103.939 109.163 104.196 109.913 104.708 110.513C105.226 111.109 105.875 111.407 106.657 111.407C107.125 111.407 107.538 111.321 107.895 111.15C108.256 110.979 108.583 110.706 108.876 110.33L109.425 110.748C108.781 111.68 107.846 112.146 106.62 112.146ZM106.459 104.676C105.8 104.676 105.243 104.917 104.789 105.401C104.34 105.884 104.066 106.534 103.969 107.349H108.722V107.254C108.698 106.492 108.48 105.872 108.07 105.394C107.66 104.915 107.123 104.676 106.459 104.676ZM114.962 104.822C114.777 104.788 114.579 104.771 114.369 104.771C113.822 104.771 113.358 104.925 112.978 105.232C112.602 105.535 112.333 105.977 112.172 106.558V112H111.3V104.075H112.157L112.172 105.335C112.636 104.397 113.38 103.929 114.406 103.929C114.65 103.929 114.843 103.96 114.984 104.024L114.962 104.822ZM29.6792 128.997C29.1519 129.763 28.3096 130.146 27.1523 130.146C26.3076 130.146 25.6655 129.902 25.2261 129.414C24.7866 128.921 24.562 128.193 24.5522 127.231V122.075H25.4238V127.122C25.4238 128.63 26.0342 129.385 27.2549 129.385C28.5244 129.385 29.3276 128.86 29.6646 127.81V122.075H30.5435V130H29.6938L29.6792 128.997ZM33.6636 122.075L33.6929 123.43C33.9907 122.942 34.3618 122.571 34.8062 122.317C35.2505 122.058 35.7412 121.929 36.2783 121.929C37.1279 121.929 37.7603 122.168 38.1753 122.646C38.5903 123.125 38.8003 123.843 38.8052 124.8V130H37.9336V124.792C37.9287 124.084 37.7773 123.557 37.4795 123.21C37.1865 122.864 36.7153 122.69 36.0659 122.69C35.5239 122.69 35.043 122.861 34.623 123.203C34.208 123.54 33.9004 123.997 33.7002 124.573V130H32.8286V122.075H33.6636ZM44.1445 130.146C43.4707 130.146 42.8604 129.98 42.3135 129.648C41.7715 129.316 41.3491 128.855 41.0464 128.264C40.7437 127.668 40.5923 127.002 40.5923 126.265V125.95C40.5923 125.188 40.7388 124.502 41.0317 123.892C41.3296 123.281 41.7422 122.803 42.2695 122.456C42.7969 122.104 43.3682 121.929 43.9834 121.929C44.9453 121.929 45.707 122.258 46.2686 122.917C46.835 123.572 47.1182 124.468 47.1182 125.605V126.096H41.4639V126.265C41.4639 127.163 41.7202 127.913 42.2329 128.513C42.7505 129.109 43.3999 129.407 44.1812 129.407C44.6499 129.407 45.0625 129.321 45.4189 129.15C45.7803 128.979 46.1074 128.706 46.4004 128.33L46.9497 128.748C46.3052 129.68 45.3701 130.146 44.1445 130.146ZM43.9834 122.676C43.3242 122.676 42.7676 122.917 42.3135 123.401C41.8643 123.884 41.5908 124.534 41.4932 125.349H46.2466V125.254C46.2222 124.492 46.0049 123.872 45.5947 123.394C45.1846 122.915 44.6475 122.676 43.9834 122.676ZM58.8442 126.118C58.8442 127.354 58.5708 128.335 58.0239 129.062C57.4771 129.785 56.7446 130.146 55.8267 130.146C54.7427 130.146 53.9126 129.766 53.3364 129.004V133.047H52.4648V122.075H53.2778L53.3218 123.196C53.8931 122.351 54.7207 121.929 55.8047 121.929C56.752 121.929 57.4941 122.288 58.0312 123.005C58.5732 123.723 58.8442 124.719 58.8442 125.994V126.118ZM57.9653 125.964C57.9653 124.954 57.7578 124.155 57.3428 123.569C56.9277 122.983 56.3491 122.69 55.6069 122.69C55.0698 122.69 54.6084 122.82 54.2227 123.079C53.8369 123.337 53.5415 123.713 53.3364 124.207V128.008C53.5464 128.462 53.8467 128.809 54.2373 129.048C54.6279 129.287 55.0894 129.407 55.6216 129.407C56.3589 129.407 56.9326 129.114 57.3428 128.528C57.7578 127.937 57.9653 127.083 57.9653 125.964ZM61.6641 123.416C61.9521 122.942 62.3208 122.576 62.77 122.317C63.2192 122.058 63.71 121.929 64.2422 121.929C65.0918 121.929 65.7241 122.168 66.1392 122.646C66.5542 123.125 66.7642 123.843 66.769 124.8V130H65.8975V124.792C65.8926 124.084 65.7412 123.557 65.4434 123.21C65.1504 122.864 64.6792 122.69 64.0298 122.69C63.4878 122.69 63.0068 122.861 62.5869 123.203C62.1719 123.54 61.8643 123.997 61.6641 124.573V130H60.7925V118.75H61.6641V123.416ZM68.5415 125.92C68.5415 125.159 68.688 124.473 68.981 123.862C69.2788 123.252 69.6963 122.778 70.2334 122.441C70.7754 122.1 71.3882 121.929 72.0718 121.929C73.1265 121.929 73.981 122.3 74.6353 123.042C75.2896 123.779 75.6167 124.758 75.6167 125.979V126.162C75.6167 126.929 75.4678 127.62 75.1699 128.235C74.877 128.845 74.4619 129.316 73.9248 129.648C73.3877 129.98 72.7749 130.146 72.0864 130.146C71.0366 130.146 70.1821 129.778 69.5229 129.041C68.8687 128.298 68.5415 127.317 68.5415 126.096V125.92ZM69.4204 126.162C69.4204 127.109 69.6646 127.888 70.1528 128.499C70.646 129.104 71.2905 129.407 72.0864 129.407C72.8774 129.407 73.5171 129.104 74.0054 128.499C74.4985 127.888 74.7451 127.085 74.7451 126.089V125.92C74.7451 125.315 74.6328 124.761 74.4082 124.258C74.1836 123.755 73.8687 123.367 73.4634 123.093C73.0581 122.815 72.5942 122.676 72.0718 122.676C71.2905 122.676 70.6533 122.983 70.1602 123.599C69.667 124.209 69.4204 125.01 69.4204 126.001V126.162ZM78.7954 120.046V122.075H80.436V122.793H78.7954V128.074C78.7954 128.513 78.8735 128.84 79.0298 129.055C79.1909 129.27 79.457 129.377 79.8281 129.377C79.9746 129.377 80.2114 129.353 80.5386 129.304L80.5752 130.022C80.3457 130.105 80.0332 130.146 79.6377 130.146C79.0371 130.146 78.6001 129.973 78.3267 129.626C78.0532 129.275 77.9165 128.76 77.9165 128.081V122.793H76.459V122.075H77.9165V120.046H78.7954ZM81.6226 125.92C81.6226 125.159 81.769 124.473 82.062 123.862C82.3599 123.252 82.7773 122.778 83.3145 122.441C83.8564 122.1 84.4692 121.929 85.1528 121.929C86.2075 121.929 87.062 122.3 87.7163 123.042C88.3706 123.779 88.6978 124.758 88.6978 125.979V126.162C88.6978 126.929 88.5488 127.62 88.251 128.235C87.958 128.845 87.543 129.316 87.0059 129.648C86.4688 129.98 85.856 130.146 85.1675 130.146C84.1177 130.146 83.2632 129.778 82.604 129.041C81.9497 128.298 81.6226 127.317 81.6226 126.096V125.92ZM82.5015 126.162C82.5015 127.109 82.7456 127.888 83.2339 128.499C83.7271 129.104 84.3716 129.407 85.1675 129.407C85.9585 129.407 86.5981 129.104 87.0864 128.499C87.5796 127.888 87.8262 127.085 87.8262 126.089V125.92C87.8262 125.315 87.7139 124.761 87.4893 124.258C87.2646 123.755 86.9497 123.367 86.5444 123.093C86.1392 122.815 85.6753 122.676 85.1528 122.676C84.3716 122.676 83.7344 122.983 83.2412 123.599C82.748 124.209 82.5015 125.01 82.5015 126.001V126.162ZM93.8101 125.964C93.8101 124.734 94.0835 123.755 94.6304 123.027C95.1821 122.295 95.9292 121.929 96.8716 121.929C97.9409 121.929 98.7563 122.351 99.3179 123.196V118.75H100.189V130H99.3691L99.3325 128.945C98.771 129.746 97.9458 130.146 96.8569 130.146C95.9438 130.146 95.2065 129.78 94.645 129.048C94.0884 128.311 93.8101 127.317 93.8101 126.067V125.964ZM94.6963 126.118C94.6963 127.129 94.8989 127.927 95.3042 128.513C95.7095 129.094 96.2808 129.385 97.0181 129.385C98.0972 129.385 98.8638 128.909 99.3179 127.957V124.236C98.8638 123.206 98.1021 122.69 97.0327 122.69C96.2954 122.69 95.7217 122.981 95.3115 123.562C94.9014 124.138 94.6963 124.99 94.6963 126.118ZM105.565 130.146C104.892 130.146 104.281 129.98 103.734 129.648C103.192 129.316 102.77 128.855 102.467 128.264C102.165 127.668 102.013 127.002 102.013 126.265V125.95C102.013 125.188 102.16 124.502 102.453 123.892C102.75 123.281 103.163 122.803 103.69 122.456C104.218 122.104 104.789 121.929 105.404 121.929C106.366 121.929 107.128 122.258 107.689 122.917C108.256 123.572 108.539 124.468 108.539 125.605V126.096H102.885V126.265C102.885 127.163 103.141 127.913 103.654 128.513C104.171 129.109 104.821 129.407 105.602 129.407C106.071 129.407 106.483 129.321 106.84 129.15C107.201 128.979 107.528 128.706 107.821 128.33L108.371 128.748C107.726 129.68 106.791 130.146 105.565 130.146ZM105.404 122.676C104.745 122.676 104.188 122.917 103.734 123.401C103.285 123.884 103.012 124.534 102.914 125.349H107.667V125.254C107.643 124.492 107.426 123.872 107.016 123.394C106.605 122.915 106.068 122.676 105.404 122.676ZM120.265 126.118C120.265 127.354 119.992 128.335 119.445 129.062C118.898 129.785 118.166 130.146 117.248 130.146C116.164 130.146 115.333 129.766 114.757 129.004V133.047H113.886V122.075H114.699L114.743 123.196C115.314 122.351 116.142 121.929 117.226 121.929C118.173 121.929 118.915 122.288 119.452 123.005C119.994 123.723 120.265 124.719 120.265 125.994V126.118ZM119.386 125.964C119.386 124.954 119.179 124.155 118.764 123.569C118.349 122.983 117.77 122.69 117.028 122.69C116.491 122.69 116.029 122.82 115.644 123.079C115.258 123.337 114.962 123.713 114.757 124.207V128.008C114.967 128.462 115.268 128.809 115.658 129.048C116.049 129.287 116.51 129.407 117.042 129.407C117.78 129.407 118.354 129.114 118.764 128.528C119.179 127.937 119.386 127.083 119.386 125.964ZM125.875 122.822C125.69 122.788 125.492 122.771 125.282 122.771C124.735 122.771 124.271 122.925 123.891 123.232C123.515 123.535 123.246 123.977 123.085 124.558V130H122.213V122.075H123.07L123.085 123.335C123.549 122.397 124.293 121.929 125.319 121.929C125.563 121.929 125.756 121.96 125.897 122.024L125.875 122.822ZM126.637 125.92C126.637 125.159 126.784 124.473 127.077 123.862C127.375 123.252 127.792 122.778 128.329 122.441C128.871 122.1 129.484 121.929 130.167 121.929C131.222 121.929 132.077 122.3 132.731 123.042C133.385 123.779 133.712 124.758 133.712 125.979V126.162C133.712 126.929 133.563 127.62 133.266 128.235C132.973 128.845 132.558 129.316 132.021 129.648C131.483 129.98 130.871 130.146 130.182 130.146C129.132 130.146 128.278 129.778 127.619 129.041C126.964 128.298 126.637 127.317 126.637 126.096V125.92ZM127.516 126.162C127.516 127.109 127.76 127.888 128.249 128.499C128.742 129.104 129.386 129.407 130.182 129.407C130.973 129.407 131.613 129.104 132.101 128.499C132.594 127.888 132.841 127.085 132.841 126.089V125.92C132.841 125.315 132.729 124.761 132.504 124.258C132.279 123.755 131.964 123.367 131.559 123.093C131.154 122.815 130.69 122.676 130.167 122.676C129.386 122.676 128.749 122.983 128.256 123.599C127.763 124.209 127.516 125.01 127.516 126.001V126.162ZM136.056 130V122.793H134.738V122.075H136.056V121.262C136.056 120.417 136.286 119.763 136.745 119.299C137.204 118.831 137.851 118.596 138.686 118.596C139.34 118.596 140.014 118.74 140.707 119.028L140.561 119.783C139.965 119.524 139.359 119.395 138.744 119.395C137.538 119.395 136.935 120.022 136.935 121.277V122.075H138.788V122.793H136.935V130H136.056ZM141.183 130H140.304V122.075H141.183V130ZM144.567 130H143.688V118.75H144.567V130ZM150.023 130.146C149.35 130.146 148.739 129.98 148.192 129.648C147.65 129.316 147.228 128.855 146.925 128.264C146.623 127.668 146.471 127.002 146.471 126.265V125.95C146.471 125.188 146.618 124.502 146.911 123.892C147.208 123.281 147.621 122.803 148.148 122.456C148.676 122.104 149.247 121.929 149.862 121.929C150.824 121.929 151.586 122.258 152.147 122.917C152.714 123.572 152.997 124.468 152.997 125.605V126.096H147.343V126.265C147.343 127.163 147.599 127.913 148.112 128.513C148.629 129.109 149.279 129.407 150.06 129.407C150.529 129.407 150.941 129.321 151.298 129.15C151.659 128.979 151.986 128.706 152.279 128.33L152.829 128.748C152.184 129.68 151.249 130.146 150.023 130.146ZM149.862 122.676C149.203 122.676 148.646 122.917 148.192 123.401C147.743 123.884 147.47 124.534 147.372 125.349H152.125V125.254C152.101 124.492 151.884 123.872 151.474 123.394C151.063 122.915 150.526 122.676 149.862 122.676Z" fill="#96A6CD"/>
</svg>
