<svg width="177" height="177" viewBox="0 0 177 177" fill="none" xmlns="http://www.w3.org/2000/svg">
<circle cx="88.5" cy="88.5" r="88.5" fill="white"/>
<path d="M89.0001 85.2375C76.0407 85.2375 65.4985 74.6953 65.4985 61.7359C65.4985 48.7766 76.0407 38.2344 89.0001 38.2344C101.959 38.2344 112.502 48.7766 112.502 61.7359C112.502 74.6953 101.959 85.2375 89.0001 85.2375ZM89.0001 46.5219C80.611 46.5219 73.786 53.3469 73.786 61.7359C73.786 70.125 80.611 76.95 89.0001 76.95C97.3892 76.95 104.214 70.125 104.214 61.7359C104.214 53.3469 97.3892 46.5219 89.0001 46.5219Z" fill="#96A6CD"/>
<path d="M134.622 137.766H43.3781C41.0828 137.766 39.2344 135.917 39.2344 133.622C39.2344 120.073 44.5156 107.378 54.0828 97.8719C60.2578 91.7375 68.9719 88.2234 77.9703 88.2234H100.03C109.048 88.2234 117.742 91.7375 123.917 97.8719C133.484 107.378 138.766 120.073 138.766 133.622C138.766 135.917 136.917 137.766 134.622 137.766ZM47.725 129.478H130.275C129.341 119.728 125.075 110.709 118.067 103.763C113.436 99.1719 106.855 96.5313 100.03 96.5313H77.9703C71.125 96.5313 64.5641 99.1719 59.9328 103.763C52.925 110.709 48.6594 119.728 47.725 129.478Z" fill="#96A6CD"/>
</svg>
