<svg width="59" height="65" viewBox="0 0 59 65" fill="none" xmlns="http://www.w3.org/2000/svg">
<g filter="url(#filter0_d)">
<path fill-rule="evenodd" clip-rule="evenodd" d="M39.9097 43.8245C44.4129 41.4626 48.0225 37.3932 49.6823 32.1636C53.0238 21.6355 47.1979 10.3919 36.6698 7.05038C26.1417 3.70885 14.8981 9.53474 11.5566 20.0629C9.66698 26.0163 10.7089 32.1986 13.8748 37.0514L22.1983 53.1152L39.9561 43.914L39.9097 43.8245Z" fill="#8491B1"/>
</g>
<circle cx="30.6195" cy="26.1133" r="14" transform="rotate(17.609 30.6195 26.1133)" fill="white"/>
<path d="M35.3984 31H27.9453V29.9609L31.8828 25.5859C32.4661 24.9245 32.8672 24.388 33.0859 23.9766C33.3099 23.5599 33.4219 23.1302 33.4219 22.6875C33.4219 22.0938 33.2422 21.6068 32.8828 21.2266C32.5234 20.8464 32.0443 20.6562 31.4453 20.6562C30.7266 20.6562 30.1667 20.862 29.7656 21.2734C29.3698 21.6797 29.1719 22.2474 29.1719 22.9766H27.7266C27.7266 21.9297 28.0625 21.0833 28.7344 20.4375C29.4115 19.7917 30.3151 19.4688 31.4453 19.4688C32.5026 19.4688 33.3385 19.7474 33.9531 20.3047C34.5677 20.8568 34.875 21.5938 34.875 22.5156C34.875 23.6354 34.1615 24.9688 32.7344 26.5156L29.6875 29.8203H35.3984V31Z" fill="black"/>
<defs>
<filter id="filter0_d" x="0" y="0" width="58.7326" height="64.1226" filterUnits="userSpaceOnUse" color-interpolation-filters="sRGB">
<feFlood flood-opacity="0" result="BackgroundImageFix"/>
<feColorMatrix in="SourceAlpha" type="matrix" values="0 0 0 0 0 0 0 0 0 0 0 0 0 0 0 0 0 0 127 0"/>
<feOffset dy="2"/>
<feGaussianBlur stdDeviation="1.5"/>
<feColorMatrix type="matrix" values="0 0 0 0 0 0 0 0 0 0 0 0 0 0 0 0 0 0 0.25 0"/>
<feBlend mode="normal" in2="BackgroundImageFix" result="effect1_dropShadow"/>
<feBlend mode="normal" in="SourceGraphic" in2="effect1_dropShadow" result="shape"/>
</filter>
</defs>
</svg>
