<svg width="59" height="65" viewBox="0 0 59 65" fill="none" xmlns="http://www.w3.org/2000/svg">
<g filter="url(#filter0_d)">
<path fill-rule="evenodd" clip-rule="evenodd" d="M39.9097 43.8245C44.4129 41.4626 48.0225 37.3932 49.6823 32.1636C53.0238 21.6355 47.1979 10.3919 36.6698 7.05038C26.1417 3.70885 14.8981 9.53474 11.5566 20.0629C9.66698 26.0163 10.7089 32.1986 13.8748 37.0514L22.1983 53.1152L39.9561 43.914L39.9097 43.8245Z" fill="#8491B1"/>
</g>
<circle cx="30.6195" cy="26.1133" r="14" transform="rotate(17.609 30.6195 26.1133)" fill="white"/>
<path d="M30.0469 24.6094H31.1328C31.8151 24.599 32.3516 24.4193 32.7422 24.0703C33.1328 23.7214 33.3281 23.25 33.3281 22.6562C33.3281 21.3229 32.6641 20.6562 31.3359 20.6562C30.7109 20.6562 30.2109 20.8359 29.8359 21.1953C29.4661 21.5495 29.2812 22.0208 29.2812 22.6094H27.8359C27.8359 21.7083 28.1641 20.9609 28.8203 20.3672C29.4818 19.7682 30.3203 19.4688 31.3359 19.4688C32.4089 19.4688 33.25 19.7526 33.8594 20.3203C34.4688 20.888 34.7734 21.6771 34.7734 22.6875C34.7734 23.1823 34.612 23.6615 34.2891 24.125C33.9714 24.5885 33.5365 24.9349 32.9844 25.1641C33.6094 25.362 34.0911 25.6901 34.4297 26.1484C34.7734 26.6068 34.9453 27.1667 34.9453 27.8281C34.9453 28.849 34.612 29.6589 33.9453 30.2578C33.2786 30.8568 32.4115 31.1562 31.3438 31.1562C30.276 31.1562 29.4062 30.8672 28.7344 30.2891C28.0677 29.7109 27.7344 28.9479 27.7344 28H29.1875C29.1875 28.599 29.3828 29.0781 29.7734 29.4375C30.1641 29.7969 30.6875 29.9766 31.3438 29.9766C32.0417 29.9766 32.5755 29.7943 32.9453 29.4297C33.3151 29.0651 33.5 28.5417 33.5 27.8594C33.5 27.1979 33.2969 26.6901 32.8906 26.3359C32.4844 25.9818 31.8984 25.7995 31.1328 25.7891H30.0469V24.6094Z" fill="black"/>
<defs>
<filter id="filter0_d" x="0" y="0" width="58.7326" height="64.1226" filterUnits="userSpaceOnUse" color-interpolation-filters="sRGB">
<feFlood flood-opacity="0" result="BackgroundImageFix"/>
<feColorMatrix in="SourceAlpha" type="matrix" values="0 0 0 0 0 0 0 0 0 0 0 0 0 0 0 0 0 0 127 0"/>
<feOffset dy="2"/>
<feGaussianBlur stdDeviation="1.5"/>
<feColorMatrix type="matrix" values="0 0 0 0 0 0 0 0 0 0 0 0 0 0 0 0 0 0 0.25 0"/>
<feBlend mode="normal" in2="BackgroundImageFix" result="effect1_dropShadow"/>
<feBlend mode="normal" in="SourceGraphic" in2="effect1_dropShadow" result="shape"/>
</filter>
</defs>
</svg>
