<svg width="85" height="85" viewBox="0 0 85 85" fill="none" xmlns="http://www.w3.org/2000/svg">
<g clip-path="url(#clip0)">
<path d="M82.9873 40.7005L30.3302 13.9806C28.8431 13.226 27.1564 14.5885 27.5834 16.2017L33.8606 39.9218C34.0586 40.6702 34.6832 41.2284 35.4488 41.3414L42.7961 42.4265L35.4488 43.5116C34.6832 43.6247 34.0585 44.183 33.8605 44.9312L27.5833 68.6513C27.1561 70.2661 28.8443 71.6264 30.3302 70.8725L82.9873 44.1527C84.4009 43.4349 84.3946 41.4142 82.9873 40.7005ZM32.4304 65.4656L37.2763 47.1545L56.3266 44.341C57.2759 44.2007 57.9792 43.386 57.9792 42.4263C57.9793 41.4667 57.2759 40.6518 56.3266 40.5116L37.2762 37.6982L32.4305 19.387L77.8345 42.4264L32.4304 65.4656ZM26.803 44.3618L8.62887 44.3617C7.56011 44.3616 6.69337 43.4952 6.69346 42.4263C6.69338 41.3574 7.55994 40.4908 8.62887 40.4909L26.803 40.491C27.872 40.4912 28.7387 41.3576 28.7385 42.4264C28.7385 43.4953 27.872 44.3619 26.803 44.3618ZM14.4544 32.7008C14.4544 31.6318 15.3208 30.7653 16.3898 30.7654L23.5612 30.7653C24.6301 30.7652 25.4967 31.6318 25.4966 32.7007C25.4966 33.7698 24.6301 34.6362 23.5612 34.6362L16.3898 34.6362C15.3211 34.6362 14.4544 33.7697 14.4544 32.7008ZM25.4967 52.1519C25.4967 53.2209 24.6302 54.0874 23.5612 54.0874L16.3899 54.0873C15.8553 54.0874 15.3715 53.8707 15.0213 53.5205C13.8129 52.3122 14.6608 50.2165 16.3899 50.2165L23.5613 50.2166C24.6302 50.2165 25.4967 51.083 25.4967 52.1519Z" fill="white"/>
</g>
<defs>
<clipPath id="clip0">
<rect width="60" height="60" fill="white" transform="translate(42.4263) rotate(45)"/>
</clipPath>
</defs>
</svg>
