<svg width="240" height="102" viewBox="0 0 240 102" fill="none" xmlns="http://www.w3.org/2000/svg">
<rect x="25" y="10" width="49" height="80" fill="white"/>
<g clip-path="url(#clip0)">
<path d="M50 -5.88496e-05C22.3857 -6.00566e-05 -9.78509e-07 22.3856 -2.18557e-06 49.9999C-3.39263e-06 77.6143 22.3857 99.9999 50 99.9999C77.6143 99.9999 100 77.6143 100 49.9999C100 22.3856 77.6143 -5.76425e-05 50 -5.88496e-05ZM69.0752 25.4629L62.1596 25.4659C56.7366 25.4659 55.688 28.0429 55.688 31.824L55.688 40.1616L68.6199 40.1616L68.6138 53.2204L55.689 53.2204L55.689 86.7324L42.2005 86.7324L42.2005 53.2204L30.9248 53.2204L30.9248 40.1616L42.2005 40.1616L42.2005 30.5309C42.2005 19.3544 49.0292 13.2675 58.9985 13.2675L69.0762 13.2828L69.0762 25.4629L69.0752 25.4629Z" fill="#3B5998"/>
</g>
<rect x="152" y="26" width="76" height="53" fill="white"/>
<g clip-path="url(#clip1)">
<path d="M140 1.99994L140 102L240 102L240 1.99994L140 1.99994ZM198.295 56.2068C196.585 67.4402 188.21 73.8802 177.367 73.8802C165.182 73.8802 155.303 64.0013 155.303 51.8163C155.303 39.6343 165.182 29.7554 177.367 29.7554C183.262 29.7554 188.426 31.8588 192.186 35.5101L185.853 41.8422C183.709 39.6817 180.774 38.5301 177.367 38.5301C170.195 38.5301 164.38 44.6465 164.38 51.8161C164.38 58.992 170.195 64.9308 177.367 64.9308C183.379 64.9308 187.931 62.025 189.245 56.2068L177.367 56.2068L177.367 47.3463L198.242 47.3463C198.492 48.7739 198.619 50.268 198.619 51.8161C198.619 53.3516 198.508 54.8141 198.295 56.2068ZM224.791 53.4596L217.06 53.4596L217.06 61.1874L211.569 61.1874L211.569 53.4596L203.838 53.4596L203.838 47.9649L211.569 47.9649L211.569 40.2338L217.06 40.2338L217.06 47.9649L224.791 47.9649L224.791 53.4596Z" fill="#DD4B39"/>
</g>
<defs>
<clipPath id="clip0">
<rect width="100" height="100" fill="white"/>
</clipPath>
<clipPath id="clip1">
<rect x="140" y="1.99994" width="100" height="100" rx="50" fill="white"/>
</clipPath>
</defs>
</svg>
