<svg width="49" height="65" viewBox="0 0 49 65" fill="none" xmlns="http://www.w3.org/2000/svg">
<path fill-rule="evenodd" clip-rule="evenodd" d="M35.4507 1.62846C37.0106 3.18842 37.0106 5.71761 35.4507 7.27756L13.1085 29.6197L45.3746 29.6197C47.3768 29.6197 48.9999 31.2429 48.9999 33.2451C48.9999 35.2474 47.3768 36.8705 45.3746 36.8705L14.202 36.8705L35.451 58.1195C37.0109 59.6795 37.0109 62.2086 35.451 63.7686C33.891 65.3286 31.3618 65.3286 29.8019 63.7686L1.58245 35.5492C1.57362 35.5405 1.56483 35.5318 1.55607 35.523C-0.00388052 33.9631 -0.00387992 31.4339 1.55607 29.8739L29.8016 1.62846C31.3615 0.0685058 33.8907 0.0685088 35.4507 1.62846Z" fill="white"/>
</svg>
