<svg width="82" height="82" viewBox="0 0 82 82" fill="none" xmlns="http://www.w3.org/2000/svg">
<path d="M41 0C49.109 0 57.036 2.40461 63.7784 6.90975C70.5208 11.4149 75.7759 17.8182 78.8791 25.31C81.9822 32.8018 82.7942 41.0455 81.2122 48.9987C79.6302 56.9519 75.7253 64.2574 69.9914 69.9914C64.2574 75.7253 56.9519 79.6302 48.9987 81.2122C41.0455 82.7942 32.8018 81.9822 25.31 78.8791C17.8182 75.7759 11.4149 70.5208 6.90975 63.7784C2.40461 57.036 0 49.109 0 41C0 30.1261 4.31963 19.6976 12.0086 12.0086C19.6976 4.31963 30.1261 0 41 0Z" fill="white"/>
<path fill-rule="evenodd" clip-rule="evenodd" d="M43.5 22.5C43.5 21.1193 42.3807 20 41 20C39.6193 20 38.5 21.1193 38.5 22.5V40.1878L33.2194 35.1851C32.217 34.2355 30.6347 34.2783 29.6851 35.2806C28.7355 36.283 28.7783 37.8653 29.7806 38.8149L39.2806 47.8149C40.227 48.7114 41.7034 48.7303 42.6724 47.8582L52.6724 38.8582C53.6987 37.9346 53.7819 36.3539 52.8582 35.3276C51.9346 34.3013 50.3539 34.2181 49.3276 35.1418L43.5 40.3866V22.5ZM20 39.5C20 37.2909 18.2091 35.5 16 35.5C13.7909 35.5 12 37.2909 12 39.5V54C12 56.2091 13.7909 58 16 58H63.5C65.7091 58 67.5 56.2091 67.5 54V39.5C67.5 37.2909 65.7091 35.5 63.5 35.5C61.2909 35.5 59.5 37.2909 59.5 39.5V50H20V39.5Z" fill="#93A2C8"/>
</svg>
