<svg width="628" height="140" viewBox="0 0 628 140" fill="none" xmlns="http://www.w3.org/2000/svg">
<g filter="url(#filter0_d)">
<rect x="25" y="25" width="578" height="90" rx="45" fill="white"/>
</g>
<path d="M78.6304 75.8306L84.27 57.1172H89.978L81.3135 82H75.9644L67.334 57.1172H73.0249L78.6304 75.8306ZM101.941 82C101.713 81.5557 101.548 81.0031 101.445 80.3423C100.249 81.6753 98.6938 82.3418 96.7798 82.3418C94.9683 82.3418 93.4644 81.8177 92.2681 80.7695C91.0832 79.7214 90.4907 78.3997 90.4907 76.8047C90.4907 74.8451 91.2142 73.3411 92.6611 72.293C94.1195 71.2448 96.2215 70.715 98.9673 70.7036H101.24V69.644C101.24 68.7896 101.018 68.106 100.574 67.5933C100.141 67.0806 99.4515 66.8242 98.5059 66.8242C97.6742 66.8242 97.019 67.0236 96.5405 67.4224C96.0734 67.8211 95.8398 68.368 95.8398 69.063H90.9009C90.9009 67.992 91.2313 67.0008 91.8921 66.0894C92.5529 65.1779 93.4871 64.4658 94.6948 63.9531C95.9025 63.429 97.2583 63.167 98.7622 63.167C101.041 63.167 102.847 63.7424 104.18 64.8931C105.524 66.0324 106.196 67.6388 106.196 69.7124V77.7275C106.208 79.4821 106.453 80.8094 106.931 81.7095V82H101.941ZM97.8564 78.5649C98.5856 78.5649 99.2578 78.4054 99.873 78.0864C100.488 77.756 100.944 77.3174 101.24 76.7705V73.5918H99.3945C96.9222 73.5918 95.6063 74.4463 95.4468 76.1553L95.4297 76.4458C95.4297 77.061 95.6462 77.568 96.0791 77.9668C96.512 78.3656 97.1045 78.5649 97.8564 78.5649ZM115.203 82H110.247V55.75H115.203V82ZM124.5 82H119.543V63.5088H124.5V82ZM119.253 58.7236C119.253 57.9831 119.498 57.3735 119.988 56.895C120.489 56.4165 121.167 56.1772 122.021 56.1772C122.865 56.1772 123.537 56.4165 124.038 56.895C124.539 57.3735 124.79 57.9831 124.79 58.7236C124.79 59.4756 124.534 60.0908 124.021 60.5693C123.52 61.0479 122.853 61.2871 122.021 61.2871C121.19 61.2871 120.518 61.0479 120.005 60.5693C119.504 60.0908 119.253 59.4756 119.253 58.7236ZM127.815 72.6177C127.815 69.7352 128.459 67.4395 129.746 65.7305C131.045 64.0215 132.817 63.167 135.061 63.167C136.861 63.167 138.348 63.8392 139.521 65.1836V55.75H144.478V82H140.017L139.778 80.0347C138.547 81.5728 136.964 82.3418 135.027 82.3418C132.851 82.3418 131.102 81.4873 129.78 79.7783C128.47 78.0579 127.815 75.6711 127.815 72.6177ZM132.754 72.9766C132.754 74.7083 133.056 76.0356 133.66 76.9585C134.264 77.8813 135.141 78.3428 136.292 78.3428C137.818 78.3428 138.895 77.6991 139.521 76.4116V69.1143C138.906 67.8268 137.841 67.1831 136.326 67.1831C133.944 67.1831 132.754 69.1143 132.754 72.9766ZM156.816 82.3418C154.105 82.3418 151.895 81.5101 150.186 79.8467C148.488 78.1833 147.639 75.9673 147.639 73.1987V72.7202C147.639 70.8631 147.998 69.2054 148.716 67.7471C149.434 66.2773 150.448 65.1494 151.758 64.3633C153.079 63.5658 154.583 63.167 156.27 63.167C158.799 63.167 160.787 63.9645 162.234 65.5596C163.692 67.1546 164.421 69.4162 164.421 72.3442V74.3608H152.646C152.806 75.5685 153.285 76.5369 154.082 77.2661C154.891 77.9953 155.911 78.3599 157.141 78.3599C159.044 78.3599 160.531 77.6706 161.602 76.292L164.028 79.0093C163.288 80.0575 162.285 80.8778 161.021 81.4702C159.756 82.0513 158.354 82.3418 156.816 82.3418ZM156.252 67.166C155.273 67.166 154.475 67.4964 153.86 68.1572C153.256 68.818 152.869 69.7637 152.698 70.9941H159.568V70.6011C159.545 69.5073 159.249 68.6642 158.679 68.0718C158.11 67.4679 157.301 67.166 156.252 67.166ZM177.632 68.1401C176.96 68.049 176.367 68.0034 175.854 68.0034C173.986 68.0034 172.761 68.6357 172.18 69.9004V82H167.241V63.5088H171.907L172.043 65.7134C173.035 64.0158 174.408 63.167 176.162 63.167C176.709 63.167 177.222 63.241 177.7 63.3892L177.632 68.1401ZM193.953 82H188.997V55.75H193.953V82ZM206.548 82.3418C203.836 82.3418 201.626 81.5101 199.917 79.8467C198.219 78.1833 197.371 75.9673 197.371 73.1987V72.7202C197.371 70.8631 197.729 69.2054 198.447 67.7471C199.165 66.2773 200.179 65.1494 201.489 64.3633C202.811 63.5658 204.315 63.167 206.001 63.167C208.53 63.167 210.518 63.9645 211.965 65.5596C213.424 67.1546 214.153 69.4162 214.153 72.3442V74.3608H202.378C202.537 75.5685 203.016 76.5369 203.813 77.2661C204.622 77.9953 205.642 78.3599 206.873 78.3599C208.775 78.3599 210.262 77.6706 211.333 76.292L213.76 79.0093C213.019 80.0575 212.017 80.8778 210.752 81.4702C209.487 82.0513 208.086 82.3418 206.548 82.3418ZM205.984 67.166C205.004 67.166 204.207 67.4964 203.591 68.1572C202.987 68.818 202.6 69.7637 202.429 70.9941H209.299V70.6011C209.277 69.5073 208.98 68.6642 208.411 68.0718C207.841 67.4679 207.032 67.166 205.984 67.166ZM226.987 76.8901C226.987 76.2863 226.685 75.8135 226.082 75.4717C225.489 75.1185 224.532 74.8052 223.21 74.5317C218.813 73.6089 216.614 71.7404 216.614 68.9263C216.614 67.2856 217.292 65.9185 218.647 64.8247C220.015 63.7196 221.798 63.167 223.997 63.167C226.344 63.167 228.218 63.7196 229.619 64.8247C231.032 65.9299 231.738 67.3654 231.738 69.1313H226.799C226.799 68.425 226.571 67.8439 226.116 67.3882C225.66 66.9211 224.948 66.6875 223.979 66.6875C223.148 66.6875 222.504 66.8755 222.048 67.2515C221.593 67.6274 221.365 68.106 221.365 68.687C221.365 69.2339 221.621 69.6782 222.134 70.02C222.658 70.3504 223.535 70.641 224.766 70.8916C225.996 71.1309 227.033 71.4043 227.876 71.7119C230.485 72.6689 231.79 74.3267 231.79 76.6851C231.79 78.3713 231.066 79.7384 229.619 80.7866C228.172 81.8234 226.304 82.3418 224.014 82.3418C222.464 82.3418 221.086 82.0684 219.878 81.5215C218.682 80.9632 217.742 80.2056 217.058 79.2485C216.375 78.2801 216.033 77.2376 216.033 76.1211H220.715C220.761 76.9984 221.086 77.6706 221.689 78.1377C222.293 78.6048 223.102 78.8384 224.116 78.8384C225.062 78.8384 225.774 78.6618 226.252 78.3086C226.742 77.944 226.987 77.4712 226.987 76.8901ZM248.333 63.5088L248.486 65.5767C249.797 63.9702 251.568 63.167 253.801 63.167C256.182 63.167 257.817 64.1069 258.706 65.9868C260.005 64.1069 261.856 63.167 264.26 63.167C266.265 63.167 267.758 63.7537 268.738 64.9272C269.718 66.0894 270.208 67.8439 270.208 70.1909V82H265.251V70.208C265.251 69.1598 265.046 68.3965 264.636 67.918C264.226 67.4281 263.503 67.1831 262.466 67.1831C260.985 67.1831 259.959 67.8895 259.39 69.3022L259.407 82H254.468V70.2251C254.468 69.1541 254.257 68.3794 253.835 67.9009C253.414 67.4224 252.696 67.1831 251.682 67.1831C250.281 67.1831 249.267 67.7642 248.64 68.9263V82H243.701V63.5088H248.333ZM273.25 72.5835C273.25 70.7492 273.603 69.1143 274.309 67.6787C275.015 66.2432 276.029 65.1323 277.351 64.3462C278.684 63.5601 280.228 63.167 281.982 63.167C284.478 63.167 286.511 63.9303 288.083 65.457C289.667 66.9837 290.55 69.0573 290.732 71.6777L290.767 72.9424C290.767 75.7793 289.975 78.0579 288.391 79.7783C286.807 81.4873 284.683 82.3418 282.017 82.3418C279.351 82.3418 277.22 81.4873 275.625 79.7783C274.041 78.0693 273.25 75.7451 273.25 72.8057V72.5835ZM278.188 72.9424C278.188 74.6969 278.519 76.0413 279.18 76.9756C279.84 77.8984 280.786 78.3599 282.017 78.3599C283.213 78.3599 284.147 77.9041 284.819 76.9927C285.492 76.0698 285.828 74.6001 285.828 72.5835C285.828 70.8631 285.492 69.5301 284.819 68.5845C284.147 67.6388 283.201 67.166 281.982 67.166C280.775 67.166 279.84 67.6388 279.18 68.5845C278.519 69.5187 278.188 70.9714 278.188 72.9424ZM293.04 72.6177C293.04 69.7352 293.683 67.4395 294.971 65.7305C296.27 64.0215 298.041 63.167 300.286 63.167C302.086 63.167 303.573 63.8392 304.746 65.1836V55.75H309.702V82H305.242L305.002 80.0347C303.772 81.5728 302.188 82.3418 300.251 82.3418C298.075 82.3418 296.326 81.4873 295.005 79.7783C293.695 78.0579 293.04 75.6711 293.04 72.6177ZM297.979 72.9766C297.979 74.7083 298.28 76.0356 298.884 76.9585C299.488 77.8813 300.365 78.3428 301.516 78.3428C303.043 78.3428 304.119 77.6991 304.746 76.4116V69.1143C304.131 67.8268 303.066 67.1831 301.55 67.1831C299.169 67.1831 297.979 69.1143 297.979 72.9766ZM318.743 82H313.787V63.5088H318.743V82ZM313.496 58.7236C313.496 57.9831 313.741 57.3735 314.231 56.895C314.732 56.4165 315.41 56.1772 316.265 56.1772C317.108 56.1772 317.78 56.4165 318.281 56.895C318.783 57.3735 319.033 57.9831 319.033 58.7236C319.033 59.4756 318.777 60.0908 318.264 60.5693C317.763 61.0479 317.096 61.2871 316.265 61.2871C315.433 61.2871 314.761 61.0479 314.248 60.5693C313.747 60.0908 313.496 59.4756 313.496 58.7236ZM324.023 82V67.1318H321.272V63.5088H324.023V62.6543C324.046 60.3301 324.758 58.5413 326.16 57.2881C327.572 56.0234 329.561 55.3911 332.124 55.3911C333.662 55.3911 335.531 55.7272 337.729 56.3994L337.012 60.4839C335.895 60.1535 335.029 59.9427 334.414 59.8516C333.799 59.749 333.138 59.6978 332.432 59.6978C330.13 59.6978 328.979 60.7174 328.979 62.7568V63.5088H332.62V67.1318H328.979V82H324.023ZM340.037 82H335.081V63.5088H340.037V82ZM351.812 78.3599C352.723 78.3599 353.464 78.1092 354.033 77.6079C354.603 77.1066 354.899 76.4401 354.922 75.6084H359.553C359.542 76.8617 359.2 78.0124 358.528 79.0605C357.856 80.0973 356.933 80.9062 355.759 81.4873C354.597 82.057 353.31 82.3418 351.897 82.3418C349.254 82.3418 347.169 81.5044 345.642 79.8296C344.115 78.1434 343.352 75.8192 343.352 72.8569V72.5322C343.352 69.6839 344.11 67.411 345.625 65.7134C347.14 64.0158 349.22 63.167 351.863 63.167C354.176 63.167 356.027 63.8278 357.417 65.1494C358.818 66.4596 359.53 68.2085 359.553 70.396H354.922C354.899 69.439 354.603 68.6642 354.033 68.0718C353.464 67.4679 352.712 67.166 351.777 67.166C350.627 67.166 349.755 67.5876 349.163 68.4307C348.582 69.2624 348.291 70.6182 348.291 72.498V73.0107C348.291 74.9134 348.582 76.2806 349.163 77.1123C349.744 77.944 350.627 78.3599 351.812 78.3599ZM373.088 82C372.861 81.5557 372.695 81.0031 372.593 80.3423C371.396 81.6753 369.841 82.3418 367.927 82.3418C366.116 82.3418 364.612 81.8177 363.416 80.7695C362.231 79.7214 361.638 78.3997 361.638 76.8047C361.638 74.8451 362.362 73.3411 363.809 72.293C365.267 71.2448 367.369 70.715 370.115 70.7036H372.388V69.644C372.388 68.7896 372.166 68.106 371.721 67.5933C371.288 67.0806 370.599 66.8242 369.653 66.8242C368.822 66.8242 368.167 67.0236 367.688 67.4224C367.221 67.8211 366.987 68.368 366.987 69.063H362.048C362.048 67.992 362.379 67.0008 363.04 66.0894C363.7 65.1779 364.635 64.4658 365.842 63.9531C367.05 63.429 368.406 63.167 369.91 63.167C372.188 63.167 373.994 63.7424 375.327 64.8931C376.672 66.0324 377.344 67.6388 377.344 69.7124V77.7275C377.355 79.4821 377.6 80.8094 378.079 81.7095V82H373.088ZM369.004 78.5649C369.733 78.5649 370.405 78.4054 371.021 78.0864C371.636 77.756 372.091 77.3174 372.388 76.7705V73.5918H370.542C368.07 73.5918 366.754 74.4463 366.594 76.1553L366.577 76.4458C366.577 77.061 366.794 77.568 367.227 77.9668C367.66 78.3656 368.252 78.5649 369.004 78.5649ZM387.051 58.9629V63.5088H390.212V67.1318H387.051V76.3604C387.051 77.0439 387.182 77.5339 387.444 77.8301C387.706 78.1263 388.207 78.2744 388.948 78.2744C389.495 78.2744 389.979 78.2345 390.4 78.1548V81.8975C389.432 82.1937 388.435 82.3418 387.41 82.3418C383.946 82.3418 382.18 80.5929 382.112 77.0952V67.1318H379.412V63.5088H382.112V58.9629H387.051ZM398.176 82H393.22V63.5088H398.176V82ZM392.93 58.7236C392.93 57.9831 393.175 57.3735 393.665 56.895C394.166 56.4165 394.844 56.1772 395.698 56.1772C396.541 56.1772 397.214 56.4165 397.715 56.895C398.216 57.3735 398.467 57.9831 398.467 58.7236C398.467 59.4756 398.21 60.0908 397.698 60.5693C397.196 61.0479 396.53 61.2871 395.698 61.2871C394.867 61.2871 394.194 61.0479 393.682 60.5693C393.18 60.0908 392.93 59.4756 392.93 58.7236ZM401.492 72.5835C401.492 70.7492 401.845 69.1143 402.551 67.6787C403.258 66.2432 404.272 65.1323 405.593 64.3462C406.926 63.5601 408.47 63.167 410.225 63.167C412.72 63.167 414.753 63.9303 416.326 65.457C417.909 66.9837 418.792 69.0573 418.975 71.6777L419.009 72.9424C419.009 75.7793 418.217 78.0579 416.633 79.7783C415.05 81.4873 412.925 82.3418 410.259 82.3418C407.593 82.3418 405.462 81.4873 403.867 79.7783C402.284 78.0693 401.492 75.7451 401.492 72.8057V72.5835ZM406.431 72.9424C406.431 74.6969 406.761 76.0413 407.422 76.9756C408.083 77.8984 409.028 78.3599 410.259 78.3599C411.455 78.3599 412.389 77.9041 413.062 76.9927C413.734 76.0698 414.07 74.6001 414.07 72.5835C414.07 70.8631 413.734 69.5301 413.062 68.5845C412.389 67.6388 411.444 67.166 410.225 67.166C409.017 67.166 408.083 67.6388 407.422 68.5845C406.761 69.5187 406.431 70.9714 406.431 72.9424ZM426.597 63.5088L426.75 65.645C428.072 63.993 429.844 63.167 432.065 63.167C434.025 63.167 435.483 63.7424 436.44 64.8931C437.397 66.0438 437.887 67.7642 437.91 70.0542V82H432.971V70.1738C432.971 69.1257 432.743 68.368 432.288 67.9009C431.832 67.4224 431.074 67.1831 430.015 67.1831C428.625 67.1831 427.582 67.7756 426.887 68.9604V82H421.948V63.5088H426.597ZM451.685 76.8901C451.685 76.2863 451.383 75.8135 450.779 75.4717C450.186 75.1185 449.229 74.8052 447.908 74.5317C443.51 73.6089 441.311 71.7404 441.311 68.9263C441.311 67.2856 441.989 65.9185 443.345 64.8247C444.712 63.7196 446.495 63.167 448.694 63.167C451.041 63.167 452.915 63.7196 454.316 64.8247C455.729 65.9299 456.436 67.3654 456.436 69.1313H451.497C451.497 68.425 451.269 67.8439 450.813 67.3882C450.357 66.9211 449.645 66.6875 448.677 66.6875C447.845 66.6875 447.201 66.8755 446.746 67.2515C446.29 67.6274 446.062 68.106 446.062 68.687C446.062 69.2339 446.318 69.6782 446.831 70.02C447.355 70.3504 448.232 70.641 449.463 70.8916C450.693 71.1309 451.73 71.4043 452.573 71.7119C455.182 72.6689 456.487 74.3267 456.487 76.6851C456.487 78.3713 455.763 79.7384 454.316 80.7866C452.869 81.8234 451.001 82.3418 448.711 82.3418C447.161 82.3418 445.783 82.0684 444.575 81.5215C443.379 80.9632 442.439 80.2056 441.755 79.2485C441.072 78.2801 440.73 77.2376 440.73 76.1211H445.413C445.458 76.9984 445.783 77.6706 446.387 78.1377C446.991 78.6048 447.799 78.8384 448.813 78.8384C449.759 78.8384 450.471 78.6618 450.95 78.3086C451.44 77.944 451.685 77.4712 451.685 76.8901Z" fill="#96A6CD"/>
<path d="M518 66.7952L533.063 82L560 58" stroke="#84DAA0" stroke-width="10" stroke-linecap="round"/>
<defs>
<filter id="filter0_d" x="0" y="0" width="628" height="140" filterUnits="userSpaceOnUse" color-interpolation-filters="sRGB">
<feFlood flood-opacity="0" result="BackgroundImageFix"/>
<feColorMatrix in="SourceAlpha" type="matrix" values="0 0 0 0 0 0 0 0 0 0 0 0 0 0 0 0 0 0 127 0"/>
<feOffset/>
<feGaussianBlur stdDeviation="12.5"/>
<feColorMatrix type="matrix" values="0 0 0 0 0 0 0 0 0 0 0 0 0 0 0 0 0 0 0.25 0"/>
<feBlend mode="normal" in2="BackgroundImageFix" result="effect1_dropShadow"/>
<feBlend mode="normal" in="SourceGraphic" in2="effect1_dropShadow" result="shape"/>
</filter>
</defs>
</svg>
